<?xml version="1.0" encoding="UTF-8"?>
<svg version="1.1" xmlns="http://www.w3.org/2000/svg" width="710" height="710">
<path d="M0 0 C234.3 0 468.6 0 710 0 C710 234.3 710 468.6 710 710 C475.7 710 241.4 710 0 710 C0 475.7 0 241.4 0 0 Z " fill="#FEFEFE" transform="translate(0,0)"/>
<path d="M0 0 C0.6079541 0.35755371 1.2159082 0.71510742 1.84228516 1.08349609 C4.51413507 2.65577965 7.1853358 4.22915034 9.85498047 5.80517578 C17.5171185 10.32153833 25.22737625 14.7538675 32.93505859 19.19189453 C40.26383925 23.41431117 47.5749373 27.66566115 54.875 31.9375 C64.1432131 37.35837076 73.45464523 42.70059774 82.78341675 48.01620483 C92.01812878 53.27939975 101.21675721 58.60152792 110.38549805 63.97900391 C115.1611091 66.77618768 119.948543 69.54636924 124.7734375 72.2578125 C133.91253989 77.3944347 142.79198563 82.43894447 151 89 C151.88300781 89.69351563 152.76601563 90.38703125 153.67578125 91.1015625 C156.49173505 93.35591873 159.25187226 95.66351969 162 98 C162.98097656 98.82113281 163.96195313 99.64226562 164.97265625 100.48828125 C180.81636551 114.10224891 192.20745372 132.61981559 197 153 C197.16661731 153.67949927 197.33323462 154.35899855 197.50490093 155.05908871 C199.51203163 164.38918727 199.28885808 173.70330318 199.2746582 183.19555664 C199.27901215 185.12541398 199.28419757 187.0552696 199.29014587 188.98512268 C199.30348499 194.20507846 199.30411939 199.42496159 199.30158257 204.64493108 C199.30050773 209.0246718 199.30541016 213.40439814 199.310188 217.78413576 C199.32126923 228.1397116 199.32173073 238.49525118 199.31567383 248.85083008 C199.30965769 259.46891425 199.32188799 270.08686512 199.3432439 280.70492655 C199.3609837 289.8681201 199.36684128 299.03127174 199.36360615 308.19448179 C199.36181008 313.64570865 199.3642575 319.09684079 199.37832069 324.54805183 C199.5058952 378.62239462 199.5058952 378.62239462 193 404 C190.96154731 400.94232096 190.31565394 398.85447799 189.44921875 395.3203125 C189.16240234 394.16144531 188.87558594 393.00257813 188.58007812 391.80859375 C188.13825195 389.98521484 188.13825195 389.98521484 187.6875 388.125 C187.26307617 386.40603516 187.26307617 386.40603516 186.83007812 384.65234375 C185.87558561 380.77088193 184.93531323 376.88611532 184 373 C183.81115234 372.21678375 183.62230469 371.4335675 183.42773438 370.62661743 C180.43008866 358.17662467 177.5563059 345.70203377 174.74832153 333.20803833 C170.965543 316.3943517 167.0259445 299.64209116 162.72680664 282.95214844 C161.9403598 279.75775301 161.2549393 276.54801156 160.5625 273.33203125 C159.27759505 267.73128121 157.48113881 262.76612311 154.9375 257.625 C154.35367554 256.42254639 154.35367554 256.42254639 153.75805664 255.19580078 C145.29469707 238.21518561 134.25020718 221.49504505 115.7265625 214.69921875 C105.72636741 212.13469881 96.86803501 213.9987698 88 219 C78.15204958 225.48702547 69.36300752 234.46552093 64 245 C63.08732578 246.46083526 62.17017238 247.91887615 61.25 249.375 C52.04561465 264.70006799 46.5061044 280.6661977 42.92504883 298.11376953 C41.79902612 303.56086302 40.51082444 308.92776326 39.0546875 314.296875 C37.02151636 321.79931462 35.29454494 329.34711467 33.625 336.9375 C31.30275229 347.39006283 28.86155462 357.8020258 26.20410156 368.17529297 C24.86329205 373.43917865 23.60334063 378.71084099 22.43359375 384.015625 C22.17263916 385.19084717 21.91168457 386.36606934 21.64282227 387.5769043 C21.14504454 389.83660943 20.65665912 392.09841211 20.17944336 394.36254883 C18.58988831 401.55592068 16.7969041 407.05589042 11.625 412.5 C9 414 9 414 6.0625 414.25 C1.38368242 412.34027854 -0.64505963 409.42060271 -3 405 C-4.76919925 399.4566839 -5.9172454 393.82445516 -7.0625 388.125 C-7.40451439 386.50031914 -7.74811919 384.87597233 -8.09326172 383.25195312 C-10.25793378 372.98585791 -12.27991345 362.68896506 -14.20947266 352.3762207 C-15.65544291 344.65812762 -17.26584311 336.98466063 -18.9375 329.3125 C-21.11252084 319.31564867 -23.14091697 309.29797587 -25.0625 299.25 C-27.33058018 287.40363162 -29.70834963 275.58794633 -32.20166016 263.78710938 C-33.37912161 258.20154911 -34.54766359 252.61412909 -35.71594238 247.02664185 C-36.7066846 242.28854417 -37.69912181 237.55081761 -38.69580078 232.81396484 C-40.32853218 225.04714054 -41.96017744 217.28191206 -43.48046875 209.4921875 C-49.42829543 179.13639759 -62.31904886 144.250408 -88 125 C-96.52766885 119.61595598 -103.85449361 116.94995488 -114 118 C-126.46397314 121.33516101 -138.66980536 130.60130621 -145.57421875 141.48046875 C-146.04472656 142.31191406 -146.51523437 143.14335937 -147 144 C-147.60714844 144.88171875 -148.21429688 145.7634375 -148.83984375 146.671875 C-162.03260579 166.03108633 -170.30804084 187.67766648 -177 210 C-177.2479834 210.80969238 -177.4959668 211.61938477 -177.75146484 212.45361328 C-201.63612375 291.52670751 -200.15774809 379.34007175 -195.1875 463.1875 C-195.14597179 463.88649288 -195.10444359 464.58548576 -195.06165695 465.30566025 C-193.76877262 486.90918311 -191.91462485 508.45427297 -189.69224548 529.98101807 C-189.6014119 530.86134705 -189.51057831 531.74167603 -189.41699219 532.64868164 C-189.3381781 533.39533585 -189.25936401 534.14199005 -189.17816162 534.91127014 C-188.88696553 538.32519265 -188.90635015 541.6985165 -188.9375 545.125 C-188.94652344 546.42695312 -188.95554688 547.72890625 -188.96484375 549.0703125 C-188.98224609 550.52050781 -188.98224609 550.52050781 -189 552 C-194.9069405 550.32636686 -200.1023099 547.48318562 -205.5 544.625 C-206.51682861 544.09044189 -207.53365723 543.55588379 -208.58129883 543.00512695 C-216.22017377 538.97568097 -223.81122088 534.86141763 -231.38378906 530.70898438 C-238.81505193 526.6355514 -246.27711243 522.62147104 -253.75 518.625 C-254.93613146 517.99034365 -256.12224799 517.35565938 -257.30834961 516.72094727 C-259.0925067 515.76625988 -260.87667931 514.81160157 -262.66090393 513.85704041 C-272.183879 508.76204557 -281.702889 503.66008739 -291.19873047 498.51464844 C-292.95337002 497.56591358 -294.70991546 496.62068587 -296.46923828 495.68066406 C-311.01561447 487.90788753 -323.07991981 478.34845434 -335 467 C-335.77988281 466.28457031 -336.55976563 465.56914063 -337.36328125 464.83203125 C-358.74895112 444.5859175 -371.54134109 414.57749354 -372.43447971 385.23060608 C-372.49680635 380.62010671 -372.46913471 376.01288165 -372.42578125 371.40234375 C-372.42132455 369.32349943 -372.41860542 367.24465079 -372.41746521 365.165802 C-372.40905218 359.582983 -372.37523631 354.00059916 -372.33537292 348.41792679 C-372.29672028 342.53640059 -372.27843464 336.6548022 -372.25683594 330.77319336 C-372.21727364 320.90173785 -372.16071248 311.03048816 -372.09423828 301.15917969 C-372.01796401 289.79616141 -371.97043879 278.43329265 -371.93794918 267.07007122 C-371.90569115 256.07517168 -371.85121527 245.08048207 -371.78744507 234.08572388 C-371.76094962 229.43555311 -371.74232223 224.78545365 -371.7303772 220.13522339 C-371.71539142 214.64533283 -371.68081297 209.15588559 -371.63200569 203.66619492 C-371.61727326 201.66859582 -371.60894888 199.67093583 -371.60803032 197.67328262 C-371.57578375 160.54562947 -358.61810258 128.09607003 -333 101 C-332.30390625 100.25105469 -331.6078125 99.50210938 -330.890625 98.73046875 C-314.51335895 81.6658357 -293.14203156 70.97802294 -272.66796875 59.69140625 C-266.91310592 56.51554725 -261.19715878 53.27799252 -255.5 50 C-245.34777231 44.16677922 -235.11197166 38.48823729 -224.87109375 32.8125 C-216.09995234 27.95027736 -207.35026554 23.05003374 -198.60546875 18.140625 C-195.26074346 16.26331732 -191.91140271 14.39556518 -188.55078125 12.546875 C-181.39178908 8.5946236 -174.44703995 4.41488289 -167.5625 0 C-111.79923967 -35.51978163 -56.04261814 -32.99564035 0 0 Z " fill="#0B2C4B" transform="translate(442,73)"/>
<path d="M0 0 C8.7604995 6.50054455 14.94141716 14.84391033 20.6953125 24 C21.06124512 24.58072266 21.42717773 25.16144531 21.80419922 25.75976562 C33.36227374 44.43638936 40.63685075 64.498859 44.6953125 86 C45.17849958 88.47549258 45.66294963 90.95073887 46.1484375 93.42578125 C47.06154673 98.09820739 47.96411017 102.77252734 48.85694885 107.4488678 C50.99881446 118.66248688 53.33458304 129.83081687 55.6953125 141 C57.17824701 148.02004198 58.65760184 155.04083072 60.1328125 162.0625 C60.32876007 162.99498566 60.52470764 163.92747131 60.72659302 164.88821411 C63.49244927 178.06791337 66.14403077 191.26299069 68.67211914 204.49023438 C70.44672061 213.76574774 72.31644315 223.01607489 74.27734375 232.25390625 C75.2540883 236.86123261 76.19833536 241.47425383 77.12774658 246.09129333 C77.82275818 249.53559006 78.52714773 252.97793985 79.23248291 256.4201355 C79.57917547 258.12272345 79.92199151 259.82610596 80.26068115 261.53030396 C80.74009134 263.93914269 81.23383376 266.34466168 81.73046875 268.75 C81.93817146 269.82053871 81.93817146 269.82053871 82.15007019 270.91270447 C83.39940537 276.84745091 85.42479718 282.58299982 89.6328125 287.0625 C91.68755369 288.16810745 91.68755369 288.16810745 94.1328125 288 C97.6654413 286.62141315 99.30880546 284.95173239 101.6953125 282 C104.65574306 275.15599388 106.19198486 268.07001091 107.8203125 260.8125 C108.43147149 258.12941973 109.04739499 255.44744399 109.6640625 252.765625 C109.8251651 252.06337296 109.9862677 251.36112091 110.1522522 250.6375885 C111.93717521 242.88961536 113.83683188 235.17022786 115.73397827 227.4491272 C118.68153312 215.45133783 121.53501646 203.45146953 124.09204102 191.36303711 C125.43885766 185.03790394 127.00453174 178.81954186 128.74609375 172.58984375 C129.42176359 170.03453273 130.02127959 167.52554494 130.55078125 164.94140625 C134.12809765 147.70415897 141.58425163 129.75759309 152.6953125 116 C153.18902344 115.17113281 153.68273437 114.34226562 154.19140625 113.48828125 C161.31219336 101.7066153 173.36475777 91.6190049 186.6953125 88 C197.12677979 86.46113784 205.60449381 89.04096785 214.3515625 94.7265625 C225.61516963 103.17426785 233.0735615 114.79936401 239.6953125 127 C240.03949219 127.61536621 240.38367188 128.23073242 240.73828125 128.86474609 C248.34178351 142.77900956 251.02831786 158.29107678 254.30996704 173.63897705 C255.6500701 179.8806401 257.16361224 186.06833077 258.7578125 192.25 C261.3008868 202.21335917 263.57323241 212.22651118 265.79125977 222.2668457 C267.54343799 230.1465494 269.42256058 237.98577887 271.3984375 245.8125 C271.8655761 247.67520753 272.33269851 249.53791911 272.79980469 251.40063477 C273.49031119 254.15134941 274.18568189 256.90033489 274.89709473 259.64572144 C275.5609156 262.20746868 276.20754965 264.7730569 276.8515625 267.33984375 C277.15407928 268.47552795 277.15407928 268.47552795 277.46270752 269.63415527 C279.39957761 277.4855492 278.04573554 284.03800393 275.1328125 291.5625 C274.87395264 292.24143311 274.61509277 292.92036621 274.34838867 293.61987305 C272.35819678 298.67324507 270.05059288 303.515235 267.5078125 308.3125 C267.17515381 308.940354 266.84249512 309.56820801 266.49975586 310.21508789 C264.84785531 313.22732833 263.20453618 315.66152231 260.6953125 318 C260.3859375 318.78375 260.0765625 319.5675 259.7578125 320.375 C258.21458769 324.18767306 255.70403753 326.86921463 252.984375 329.91796875 C249.81198034 333.48523953 247.10714194 336.86543524 244.6953125 341 C242.08953114 344.02606868 240.52237425 345.13582477 236.6953125 346 C234.96505148 347.47890069 234.96505148 347.47890069 233.6953125 349 C225.17078829 345.2380904 221.82314189 336.71633697 218.6328125 328.5 C212.34498652 311.60099725 208.9635499 293.92239147 205.66162109 276.24584961 C199.71154385 243.72617833 199.71154385 243.72617833 190.6953125 212 C185.93775235 210.77043396 185.93775235 210.77043396 181.5078125 212.3125 C175.88574808 220.64866448 174.07420081 230.85336907 171.8203125 240.5 C171.47008369 241.97304348 171.11924472 243.445942 170.76782227 244.91870117 C168.42911424 254.74965693 166.16526627 264.59802222 163.91674805 274.44995117 C161.81293695 283.61772632 159.54392573 292.74092329 157.23461914 301.85888672 C155.64496925 308.14597191 154.12044687 314.44045628 152.68261719 320.76391602 C148.16889895 340.47273916 140.35527528 357.24643729 127.6953125 373 C127.04949219 373.84433594 126.40367187 374.68867187 125.73828125 375.55859375 C116.26625867 386.8779324 102.52578159 393.9425279 87.8984375 395.25 C74.13895566 395.82034122 62.57154133 390.01604013 52.1328125 381.4375 C35.65300597 366.09322784 30.36316265 344.90296521 27.24746704 323.44445801 C26.6185479 319.12071128 25.96646977 314.80048788 25.3125 310.48046875 C25.17985245 309.60331207 25.0472049 308.7261554 24.91053772 307.82241821 C23.58037252 299.10678689 22.06777628 290.42702231 20.5078125 281.75 C18.58991049 271.0578623 16.75325927 260.36380933 15.10351562 249.62695312 C11.37732291 225.64738757 7.33184272 201.71750204 3.32421875 177.78381348 C2.59050185 173.40175757 1.85782695 169.01952923 1.12588501 164.63717651 C0.75870995 162.44286335 0.3895857 160.24888436 0.02026367 158.05493164 C-1.24439582 150.51849117 -2.47196683 142.97797306 -3.6386261 135.42567444 C-4.24649224 131.49447803 -4.86372051 127.56477004 -5.48098755 123.63504028 C-5.77713017 121.73090952 -6.06847159 119.82602504 -6.35470581 117.92037964 C-6.75571107 115.25219658 -7.17315015 112.58702933 -7.59375 109.921875 C-7.76386848 108.74447502 -7.76386848 108.74447502 -7.93742371 107.54328918 C-8.9353238 101.38043501 -10.86534728 95.69168577 -15.1171875 91 C-18.42213774 89.48916561 -20.71809631 89.49661878 -24.3046875 90 C-31.23647021 95.51391807 -33.03512005 102.01300934 -34.8046875 110.3125 C-35.01971924 111.2936377 -35.23475098 112.27477539 -35.45629883 113.28564453 C-36.08602756 116.18774903 -36.69961258 119.09266375 -37.3046875 122 C-37.46501465 122.76973145 -37.6253418 123.53946289 -37.79052734 124.33251953 C-39.54058642 132.87320334 -40.82000883 141.42433585 -41.77734375 150.0859375 C-42.15741787 152.90693209 -42.62578817 155.54630456 -43.234375 158.3125 C-44.71535424 165.50739127 -45.36340351 172.81087337 -46.10961914 180.11083984 C-46.36455525 182.59930626 -46.62798137 185.0867631 -46.89257812 187.57421875 C-47.0630105 189.20828017 -47.23294754 190.84239334 -47.40234375 192.4765625 C-47.51643333 193.55244125 -47.51643333 193.55244125 -47.63282776 194.65005493 C-48.96615506 207.83435898 -49.46995782 220.99928811 -49.5078125 234.24609375 C-49.51475544 235.77170332 -49.52175047 237.29731265 -49.52879333 238.82292175 C-49.54799868 243.69445078 -49.55271528 248.56593758 -49.5546875 253.4375 C-49.55542393 254.26779472 -49.55616035 255.09808945 -49.5569191 255.95354462 C-49.58288453 291.90238287 -48.80520196 327.87364356 -43.77880859 363.52832031 C-43.1736132 367.95977163 -42.62410131 372.39733523 -42.07421875 376.8359375 C-41.74136689 379.50492542 -41.40789638 382.17383523 -41.07415771 384.8427124 C-40.85568215 386.59152113 -40.63792981 388.34042039 -40.42095947 390.0894165 C-40.11441806 392.54976619 -39.80206388 395.00931461 -39.48828125 397.46875 C-39.39875687 398.19589203 -39.30923248 398.92303406 -39.21699524 399.67221069 C-38.64078087 404.13816903 -37.79626994 408.47991693 -36.78431702 412.86706543 C-36.11058817 415.86316865 -35.59385551 418.87807444 -35.0859375 421.90625 C-34.77076172 423.76443359 -34.77076172 423.76443359 -34.44921875 425.66015625 C-34.01953125 428.22005208 -33.58984375 430.77994792 -33.16015625 433.33984375 C-31.81412351 441.27670033 -31.81412351 441.27670033 -30.15625 449.15234375 C-29.30251943 453.00979609 -29.13818059 456.08708763 -29.3046875 460 C-35.25503073 459.44866876 -40.40245947 458.21394628 -45.9921875 456.125 C-46.81033936 455.82037842 -47.62849121 455.51575684 -48.47143555 455.2019043 C-58.5201768 451.32015052 -67.87789037 446.17565832 -77.3046875 441 C-79.35372491 439.88590589 -81.40321447 438.77264302 -83.453125 437.66015625 C-88.10566382 435.13196598 -92.75131063 432.59156747 -97.39135742 430.04052734 C-98.68373368 429.33769366 -99.98887245 428.65790753 -101.3046875 428 C-102.31431071 423.74230652 -102.67268702 419.34393629 -103.1796875 415 C-103.26361755 414.30072388 -103.34754761 413.60144775 -103.434021 412.88098145 C-105.25175943 397.54527569 -106.35625169 382.15265751 -107.4296875 366.75 C-107.5099115 365.60305664 -107.5901355 364.45611328 -107.67279053 363.27441406 C-108.16442475 356.17035662 -108.62495006 349.06477141 -109.06155396 341.9571228 C-109.23018046 339.21264016 -109.40131498 336.46840637 -109.57540894 333.72427368 C-110.98674204 311.32539528 -111.67545159 289.00208347 -111.62254333 266.55905533 C-111.61707027 264.13559056 -111.61472571 261.71213565 -111.6126709 259.28866577 C-111.57686985 232.11814748 -110.87311554 205.06516306 -108.3046875 178 C-108.23207703 177.23476013 -108.15946655 176.46952026 -108.08465576 175.68109131 C-106.0717522 154.90213196 -102.44612753 134.44373473 -98.3046875 114 C-98.12437988 113.09088867 -97.94407227 112.18177734 -97.75830078 111.24511719 C-91.41959921 79.49369227 -80.97321852 45.16497066 -61.3046875 19 C-60.83160156 18.3090625 -60.35851562 17.618125 -59.87109375 16.90625 C-52.13930907 5.86710134 -42.29230827 -3.50206829 -29.21875 -7.6640625 C-17.99861726 -9.63331029 -9.2365078 -6.17482415 0 0 Z " fill="#FDFEFD" transform="translate(355.3046875,198)"/>
<path d="M0 0 C0 3.69387568 -0.94368023 4.59463841 -3.12890625 7.51171875 C-6.88638 12.72985491 -9.98443354 18.10718547 -12.9375 23.8125 C-13.45256104 24.80660889 -13.96762207 25.80071777 -14.49829102 26.82495117 C-21.9389848 41.48220047 -27.26458258 56.66994229 -31.34423828 72.56640625 C-31.83543646 74.38928915 -32.36028522 76.20316148 -32.90185547 78.01171875 C-35.77088841 87.62221791 -37.76898371 97.27746101 -39.625 107.125 C-39.9265404 108.69411485 -40.22862181 110.26312583 -40.53125 111.83203125 C-53.84207042 181.15889827 -53.38514432 252.936916 -49.1875 323.1875 C-49.14597179 323.88649288 -49.10444359 324.58548576 -49.06165695 325.30566025 C-47.76877262 346.90918311 -45.91462485 368.45427297 -43.69224548 389.98101807 C-43.6014119 390.86134705 -43.51057831 391.74167603 -43.41699219 392.64868164 C-43.3381781 393.39533585 -43.25936401 394.14199005 -43.17816162 394.91127014 C-42.88696553 398.32519265 -42.90635015 401.6985165 -42.9375 405.125 C-42.94652344 406.42695312 -42.95554688 407.72890625 -42.96484375 409.0703125 C-42.98224609 410.52050781 -42.98224609 410.52050781 -43 412 C-48.9069405 410.32636686 -54.1023099 407.48318562 -59.5 404.625 C-61.02524292 403.82316284 -61.02524292 403.82316284 -62.58129883 403.00512695 C-70.22017377 398.97568097 -77.81122088 394.86141763 -85.38378906 390.70898438 C-92.81505193 386.6355514 -100.27711243 382.62147104 -107.75 378.625 C-108.93613146 377.99034365 -110.12224799 377.35565938 -111.30834961 376.72094727 C-113.0925067 375.76625988 -114.87667931 374.81160157 -116.66090393 373.85704041 C-126.183879 368.76204557 -135.702889 363.66008739 -145.19873047 358.51464844 C-146.95337002 357.56591358 -148.70991546 356.62068587 -150.46923828 355.68066406 C-165.01561447 347.90788753 -177.07991981 338.34845434 -189 327 C-189.77988281 326.28457031 -190.55976563 325.56914063 -191.36328125 324.83203125 C-211.52688825 305.74286157 -224.88779444 277.1312938 -226.16748047 249.36621094 C-226.33235629 241.24121249 -226.22886064 233.12279214 -226 225 C-225.67 225 -225.34 225 -225 225 C-224.67 228.63 -224.34 232.26 -224 236 C-213.9818841 226.18033647 -213.9818841 226.18033647 -204.5703125 215.7890625 C-202.17052913 213.05498094 -199.55590322 210.54736728 -196.96484375 207.99609375 C-195.07769256 206.07892823 -193.31314625 204.10424678 -191.5625 202.0625 C-188.99334729 199.07198284 -186.30682744 196.26883316 -183.5 193.5 C-179.45070188 189.4985821 -175.71109044 185.31246117 -172 181 C-170.40313369 179.16030443 -168.79874997 177.3271112 -167.1875 175.5 C-166.43855469 174.6440625 -165.68960938 173.788125 -164.91796875 172.90625 C-163 171 -163 171 -161 171 C-160.73574219 170.40703125 -160.47148437 169.8140625 -160.19921875 169.203125 C-158.95629575 166.91970946 -157.69598354 165.52573277 -155.8125 163.75 C-153.28403411 161.29973408 -150.91244124 158.80167949 -148.625 156.125 C-145.39852835 152.37766297 -141.95440285 148.91098784 -138.40625 145.46875 C-135.78171844 142.77604879 -133.33301239 139.96645154 -130.86914062 137.12744141 C-127.82219792 133.65943478 -124.6630044 130.29941498 -121.5 126.9375 C-120.87480469 126.26912109 -120.24960938 125.60074219 -119.60546875 124.91210938 C-116.53511452 121.64151466 -113.43351578 118.41468263 -110.25 115.25390625 C-107.89395844 112.91409726 -105.64431042 110.53816335 -103.5 108 C-100.71760668 104.77043633 -97.78980571 101.76677347 -94.75 98.78125 C-92.91757513 96.91610326 -91.20646865 94.98072254 -89.5 93 C-87.2544206 90.39352391 -84.95448488 87.91065479 -82.5 85.5 C-80.06610268 83.10946833 -77.78644441 80.64953738 -75.5625 78.0625 C-73.14382221 75.25423653 -70.64100317 72.60029407 -68 70 C-64.74629447 66.79635147 -61.74586453 63.45162948 -58.7734375 59.98828125 C-56.96641844 57.96235019 -55.07294161 56.07769631 -53.125 54.1875 C-49.18483942 50.30807407 -45.75698164 46.11192369 -42.296875 41.8046875 C-39.34036354 38.19452555 -36.22510815 34.74876346 -33.078125 31.3046875 C-31.18266732 29.20258218 -29.36643451 27.05548394 -27.5625 24.875 C-26.716875 23.92625 -25.87125 22.9775 -25 22 C-24.34 22 -23.68 22 -23 22 C-22.731875 21.360625 -22.46375 20.72125 -22.1875 20.0625 C-21 18 -21 18 -18 17 C-18 16.34 -18 15.68 -18 15 C-17.34 15 -16.68 15 -16 15 C-16 14.34 -16 13.68 -16 13 C-14.32464541 11.48015117 -12.58294378 10.03293547 -10.8125 8.625 C-9.84957031 7.85414063 -8.88664063 7.08328125 -7.89453125 6.2890625 C-6.93933594 5.53367188 -5.98414063 4.77828125 -5 4 C-3.33288965 2.66722146 -1.66607219 1.33407609 0 0 Z " fill="#96936B" transform="translate(296,213)"/>
<path d="M0 0 C5.53830229 3.51469184 7.95313393 7.66985191 9.49337769 14.04075623 C9.91133211 16.29693107 10.27273831 18.55507013 10.61328125 20.82421875 C10.74804871 21.67062927 10.88281616 22.51703979 11.02166748 23.38909912 C11.4602027 26.15400178 11.88621238 28.92068515 12.3125 31.6875 C12.6186657 33.62850165 12.92588954 35.56933666 13.23413086 37.51000977 C13.86035654 41.45476017 14.48304462 45.40004379 15.10351562 49.34570312 C16.25738491 56.65519003 17.47048132 63.95444043 18.69567871 71.2522583 C19.06411693 73.44713242 19.43118801 75.64223111 19.79785156 77.83740234 C20.53087287 82.22510721 21.26533801 86.61256959 22 91 C27.71136448 125.11178673 27.71136448 125.11178673 30.4375 142.0625 C30.63553223 143.29355469 30.83356445 144.52460938 31.03759766 145.79296875 C31.45871934 148.41209967 31.87978731 151.03123917 32.30078125 153.65039062 C32.46900391 154.69682739 32.46900391 154.69682739 32.640625 155.7644043 C32.89067268 157.31989793 33.14066885 158.87539985 33.390625 160.4309082 C34.40246342 166.72538636 35.41811412 173.0192397 36.4375 179.3125 C36.58527893 180.2252066 36.73305786 181.13791321 36.88531494 182.07827759 C39.1438746 196.00184939 41.51511326 209.90193134 44.04663086 223.77856445 C45.19867042 230.1593102 46.22217867 236.51755846 47.03125 242.94921875 C49.49665541 262.02779774 57.53208863 281.70694047 72.5625 294.30078125 C84.312935 302.49219026 96.69216698 306.62809114 110.984375 304.5703125 C128.93683622 300.72335652 140.95270688 289.65621815 151 275 C160.81722543 259.80541146 166.30062073 244.06977305 170.2734375 226.50390625 C172.1339882 218.28891121 174.21235771 210.1319326 176.28125 201.96737671 C179.6340266 188.72294248 182.8586481 175.4641754 185.8125 162.125 C193.2946053 128.54033051 193.2946053 128.54033051 199 122 C202 120.6875 202 120.6875 205 121 C211.28840721 124.89282351 212.19378662 132.24310424 214 139 C215.1319513 143.82855505 216.07453443 148.69538904 217.0071106 153.56570435 C217.44924771 155.87382748 217.9000948 158.18010436 218.35327148 160.48608398 C218.9600297 163.5742853 219.56448416 166.66291992 220.16699219 169.75195312 C222.01235581 179.18872277 223.97028542 188.60126791 226 198 C226.23041992 199.07072754 226.46083984 200.14145508 226.69824219 201.24462891 C232.82945661 232.39087929 232.82945661 232.39087929 249 259 C247.53331603 262.72689454 245.70652463 264.14138759 242.328125 266.21484375 C241.36551758 266.81151855 240.40291016 267.40819336 239.41113281 268.02294922 C238.36795898 268.65475098 237.32478516 269.28655273 236.25 269.9375 C235.1681543 270.60281738 234.08630859 271.26813477 232.97167969 271.95361328 C225.22419152 276.69999536 217.41711279 281.34502547 209.57958984 285.94091797 C201.96634001 290.40806243 194.41459685 294.972685 186.875 299.5625 C184.47663384 301.02225267 182.07822434 302.48193403 179.6796875 303.94140625 C178.81216858 304.46930756 178.81216858 304.46930756 177.92712402 305.00787354 C172.96384931 308.02613861 167.98522864 311.018181 163 314 C156.4030973 317.94591255 149.82769158 321.92569277 143.26245117 325.92407227 C132.28784681 332.60713951 121.29135515 339.2529541 110.2532959 345.83078003 C108.90387651 346.63536426 107.55513157 347.44108104 106.20715332 348.24807739 C80.72007707 363.49838931 80.72007707 363.49838931 68.6875 367.75 C67.90334717 368.03311035 67.11919434 368.3162207 66.3112793 368.60791016 C41.66711478 377.20911991 14.43970943 379.02802706 -11 373 C-14.19203884 358.47878924 -16.9470552 343.92170921 -19.29956055 329.24365234 C-19.49332275 328.04047363 -19.68708496 326.83729492 -19.88671875 325.59765625 C-20.13748169 324.01223022 -20.13748169 324.01223022 -20.39331055 322.39477539 C-20.85702825 319.80000895 -21.38785704 317.26669327 -21.98193359 314.70166016 C-23.06874259 309.88928092 -23.76954459 305.06608952 -24.40234375 300.17578125 C-24.52471405 299.24802383 -24.64708435 298.32026642 -24.77316284 297.36439514 C-25.16759369 294.34787457 -25.55373197 291.3303948 -25.9375 288.3125 C-26.13634293 286.75840424 -26.13634293 286.75840424 -26.33920288 285.1729126 C-28.14948594 270.93012162 -29.7122127 256.69064795 -30.8125 242.375 C-30.86953094 241.63827057 -30.92656189 240.90154114 -30.98532104 240.14248657 C-31.36876647 235.09749209 -31.6942557 230.05022818 -32 225 C-32.07048553 223.90892441 -32.07048553 223.90892441 -32.14239502 222.79580688 C-33.20752538 205.99583752 -33.22103549 189.17659491 -33.24023438 172.34985352 C-33.24458524 169.10169029 -33.258375 165.85379774 -33.28125 162.60571289 C-33.51502716 128.67921782 -32.40968233 93.68881404 -25.4753418 60.37646484 C-24.74567532 56.72850721 -24.22777162 53.05478675 -23.6875 49.375 C-22.50340683 41.64296607 -21.07007189 33.9752038 -19.5 26.3125 C-19.19775513 24.80792236 -19.19775513 24.80792236 -18.8894043 23.27294922 C-13.6857104 -1.62372835 -13.6857104 -1.62372835 0 0 Z " fill="#96936B" transform="translate(338,287)"/>
<path d="M0 0 C0 3.64479073 -0.87592625 4.5455451 -2.9375 7.5 C-13.31174608 23.3776571 -19.28519869 40.65330652 -23.07519531 59.11425781 C-24.20091777 64.56124095 -25.48922107 69.92793107 -26.9453125 75.296875 C-28.97848364 82.79931462 -30.70545506 90.34711467 -32.375 97.9375 C-34.69724771 108.39006283 -37.13844538 118.8020258 -39.79589844 129.17529297 C-41.13670795 134.43917865 -42.39665937 139.71084099 -43.56640625 145.015625 C-43.82736084 146.19084717 -44.08831543 147.36606934 -44.35717773 148.5769043 C-44.85495546 150.83660943 -45.34334088 153.09841211 -45.82055664 155.36254883 C-47.4148725 162.57746526 -49.15821011 168.15821011 -54.5 173.5 C-57 175 -57 175 -59.3125 174.75 C-60.1478125 174.37875 -60.1478125 174.37875 -61 174 C-60.34 174 -59.68 174 -59 174 C-59.45375 172.9275 -59.9075 171.855 -60.375 170.75 C-60.63023437 170.14671875 -60.88546875 169.5434375 -61.1484375 168.921875 C-61.97528216 166.98993436 -61.97528216 166.98993436 -62.99023438 165.15820312 C-64.03611027 162.9228204 -64.54352086 160.96684994 -65.0078125 158.546875 C-65.18586426 157.63728027 -65.36391602 156.72768555 -65.54736328 155.79052734 C-65.7379834 154.78715332 -65.92860352 153.7837793 -66.125 152.75 C-66.5620452 150.50772381 -66.99958139 148.26554328 -67.4375 146.0234375 C-67.68113281 144.76756836 -67.92476563 143.51169922 -68.17578125 142.21777344 C-69.61827435 134.81017313 -71.11228244 127.41270644 -72.59613037 120.01330566 C-73.11308143 117.43445669 -73.6292402 114.85545075 -74.14501953 112.27636719 C-74.30952606 111.45442871 -74.47403259 110.63249023 -74.64352417 109.78564453 C-74.96693753 108.16641935 -75.28916326 106.54695645 -75.61013794 104.92724609 C-76.35923407 101.15461332 -77.12614528 97.38818627 -77.94433594 93.62988281 C-78.0898288 92.94753571 -78.23532166 92.2651886 -78.38522339 91.56216431 C-78.77590303 89.73610294 -79.17638264 87.91214585 -79.57763672 86.08837891 C-80.03770267 82.72431287 -80.13358105 81.19584151 -79 78 C-76.84269314 75.48093781 -74.3783226 73.3340702 -71.89648438 71.14038086 C-70.42223888 69.79871386 -68.94987301 68.45497902 -67.47924805 67.10934448 C-66.72892303 66.42585308 -65.97859802 65.74236168 -65.20553589 65.03815842 C-61.85653661 61.94331371 -58.62245708 58.74000069 -55.40039062 55.51391602 C-54.77442238 54.88840819 -54.14845413 54.26290037 -53.50351715 53.61843777 C-51.55236722 51.66563876 -49.60425816 49.70983885 -47.65625 47.75390625 C-46.26686413 46.36264765 -44.87725165 44.97161532 -43.48742676 43.58079529 C-39.88836141 39.97797195 -36.29231268 36.37215324 -32.69696045 32.765625 C-29.00427684 29.06257992 -25.30864234 25.36248219 -21.61328125 21.66210938 C-14.4060207 14.44423055 -7.20195477 7.22317265 0 0 Z " fill="#96936C" transform="translate(508,312)"/>
<path d="M0 0 C234.3 0 468.6 0 710 0 C710 234.3 710 468.6 710 710 C475.7 710 241.4 710 0 710 C0 475.7 0 241.4 0 0 Z M2 1 C2 234.31 2 467.62 2 708 C235.31 708 468.62 708 709 708 C709 474.69 709 241.38 709 1 C475.69 1 242.38 1 2 1 Z " fill="#8F8F8E" transform="translate(0,0)"/>
<path d="M0 0 C-0.763125 0.804375 -1.52625 1.60875 -2.3125 2.4375 C-5.50795254 6.34205578 -6.7483318 10.1522692 -8 15 C-8.29519531 16.12921875 -8.59039062 17.2584375 -8.89453125 18.421875 C-12.28252356 32.18473646 -14.10805227 46.25661435 -16.14700317 60.26683044 C-16.78737562 64.6402153 -17.49914223 68.99470161 -18.26391602 73.34765625 C-19.8724718 82.65748554 -20.76599512 92.034904 -21.625 101.4375 C-21.8098999 103.40771118 -21.8098999 103.40771118 -21.99853516 105.41772461 C-26.53049871 156.35353287 -25.13176917 208.1897996 -20 259 C-19.85854553 260.41931824 -19.85854553 260.41931824 -19.7142334 261.86730957 C-17.1235369 287.71251111 -13.14940922 313.20855503 -8.41717529 338.74133301 C-7.50660264 343.67134787 -6.61718118 348.60519687 -5.73046875 353.53955078 C-5.29883739 355.93718726 -4.86293668 358.33406083 -4.421875 360.72998047 C-4.23238281 361.77299316 -4.04289062 362.81600586 -3.84765625 363.890625 C-3.6002771 365.23688965 -3.6002771 365.23688965 -3.34790039 366.61035156 C-3 369 -3 369 -3 373 C-4.98 373 -6.96 373 -9 373 C-12.19203884 358.47878924 -14.9470552 343.92170921 -17.29956055 329.24365234 C-17.49332275 328.04047363 -17.68708496 326.83729492 -17.88671875 325.59765625 C-18.13748169 324.01223022 -18.13748169 324.01223022 -18.39331055 322.39477539 C-18.85702825 319.80000895 -19.38785704 317.26669327 -19.98193359 314.70166016 C-21.06874259 309.88928092 -21.76954459 305.06608952 -22.40234375 300.17578125 C-22.52471405 299.24802383 -22.64708435 298.32026642 -22.77316284 297.36439514 C-23.16759369 294.34787457 -23.55373197 291.3303948 -23.9375 288.3125 C-24.13634293 286.75840424 -24.13634293 286.75840424 -24.33920288 285.1729126 C-26.14948594 270.93012162 -27.7122127 256.69064795 -28.8125 242.375 C-28.86953094 241.63827057 -28.92656189 240.90154114 -28.98532104 240.14248657 C-29.36876647 235.09749209 -29.6942557 230.05022818 -30 225 C-30.07048553 223.90892441 -30.07048553 223.90892441 -30.14239502 222.79580688 C-31.20752538 205.99583752 -31.22103549 189.17659491 -31.24023438 172.34985352 C-31.24458524 169.10169029 -31.258375 165.85379774 -31.28125 162.60571289 C-31.51502716 128.67921782 -30.40968233 93.68881404 -23.4753418 60.37646484 C-22.74567532 56.72850721 -22.22777162 53.05478675 -21.6875 49.375 C-20.50340683 41.64296607 -19.07007189 33.9752038 -17.5 26.3125 C-17.19775513 24.80792236 -17.19775513 24.80792236 -16.8894043 23.27294922 C-11.89074768 -0.64274312 -11.89074768 -0.64274312 0 0 Z " fill="#1E2743" transform="translate(336,287)"/>
<path d="M0 0 C-0.9470553 2.39200906 -1.90114087 4.77447923 -2.93408203 7.13085938 C-6.1723799 14.68410999 -8.01228124 22.52609441 -9.875 30.5 C-10.22671356 31.98036285 -10.57901751 33.46058555 -10.93188477 34.94067383 C-13.21034174 44.52490168 -15.4330438 54.1224563 -17.63354492 63.72485352 C-19.74958527 72.95414891 -21.9093447 82.1728665 -24.08572388 91.38809204 C-24.48150929 93.06482605 -24.87660943 94.74172199 -25.27096558 96.41879272 C-31.36431371 122.32293653 -31.36431371 122.32293653 -35.25 130.875 C-35.55446045 131.55280518 -35.8589209 132.23061035 -36.17260742 132.92895508 C-46.1845782 154.91405745 -58.6608944 172.10075105 -81.02734375 182.46875 C-83.37168901 183.10009843 -84.7281391 182.77253436 -87 182 C-86.01 181.50371094 -85.02 181.00742187 -84 180.49609375 C-60.88342864 168.70204423 -46.95762494 147.43258545 -39 123 C-37.36032923 117.21969065 -36.05161646 111.36265151 -34.7265625 105.50390625 C-32.8660118 97.28891121 -30.78764229 89.1319326 -28.71875 80.96737671 C-25.3659734 67.72294248 -22.1413519 54.4641754 -19.1875 41.125 C-11.92508889 8.52646426 -11.92508889 8.52646426 -6 1 C-4 0 -4 0 0 0 Z " fill="#1E2742" transform="translate(543,408)"/>
<path d="M0 0 C0.99 0.33 1.98 0.66 3 1 C2.25194092 1.61983765 2.25194092 1.61983765 1.48876953 2.25219727 C-0.44625874 4.12130457 -0.44625874 4.12130457 0.1796875 7.96484375 C0.43093236 9.64669443 0.70606685 11.3250824 1 13 C1.14856445 13.87543457 1.29712891 14.75086914 1.45019531 15.65283203 C1.97863493 18.62908316 2.54637344 21.59560266 3.125 24.5625 C3.33946777 25.67294678 3.55393555 26.78339355 3.77490234 27.92749023 C5.85693672 38.55377758 8.18648243 49.12227143 10.54663086 59.68945312 C12.39472324 67.99980631 14.02034441 76.29055504 15.19921875 84.72265625 C15.90042361 87.59246539 16.59710068 89.21828264 18.08203125 91.68359375 C20 95 20 95 20 99 C17.8125 98.9375 17.8125 98.9375 15 98 C11.14310621 93.33453386 9.12584923 89.31691751 7.9375 83.35546875 C7.70185837 82.27660652 7.70185837 82.27660652 7.4614563 81.1759491 C6.95793231 78.84962082 6.47852981 76.51908556 6 74.1875 C5.65595939 72.5715269 5.31073382 70.95580566 4.96435547 69.34033203 C2.29861799 56.81789286 -0.17601767 44.25575867 -2.49584961 31.66479492 C-3.15561501 28.17746352 -3.88071542 24.70466887 -4.61889648 21.2331543 C-5.21176877 17.75909741 -5.19183023 14.51688761 -5 11 C-4.67 10.67 -4.34 10.34 -4 10 C-3.95907063 7.66702567 -3.95758277 5.33294775 -4 3 C-2.68 2.67 -1.36 2.34 0 2 C0 1.34 0 0.68 0 0 Z " fill="#1C2641" transform="translate(429,387)"/>
<path d="M0 0 C0.33 0 0.66 0 1 0 C1.33 63.69 1.66 127.38 2 193 C3.32 192.01 4.64 191.02 6 190 C6.66 190.33 7.32 190.66 8 191 C6.8572081 192.16964602 5.71068285 193.33564556 4.5625 194.5 C3.60537109 195.47453125 3.60537109 195.47453125 2.62890625 196.46875 C1 198 1 198 0 198 C0 132.66 0 67.32 0 0 Z " fill="#1A3248" transform="translate(71,252)"/>
<path d="M0 0 C1.5 1.25 1.5 1.25 3 3 C3 4.32 3 5.64 3 7 C3.99 6.67 4.98 6.34 6 6 C8.00569503 10.13674599 8.16902514 13.43632113 8 18 C8 18.99 8 19.98 8 21 C6.5 22.6875 6.5 22.6875 5 24 C4.34 23.67 3.68 23.34 3 23 C2.35093825 20.44543587 1.82744853 17.96503697 1.375 15.375 C1.2409375 14.67503906 1.106875 13.97507812 0.96875 13.25390625 C0.15281193 8.76624684 -0.13163017 4.55919059 0 0 Z " fill="#182343" transform="translate(408,321)"/>
<path d="M0 0 C1 3 1 3 0 6 C0.99 6.66 1.98 7.32 3 8 C3.55639066 14.23157542 2.39157276 19.93671868 1 26 C0.67 26 0.34 26 0 26 C-0.33 22.7 -0.66 19.4 -1 16 C-1.33 17.32 -1.66 18.64 -2 20 C-3.10520891 23.02090436 -4.20125499 25.30188249 -6 28 C-5.58692339 21.94629108 -4.71993679 16.01698948 -3.5625 10.0625 C-3.31628906 8.79535156 -3.07007813 7.52820313 -2.81640625 6.22265625 C-2 3 -2 3 0 0 Z " fill="#232C44" transform="translate(320,312)"/>
<path d="M0 0 C1.32 0 2.64 0 4 0 C3.2354226 4.45196967 1.16887655 6.21824551 -2.20703125 9.046875 C-5.74319624 11.51971765 -9.41236904 13.53633922 -13.25 15.5 C-13.94746338 15.86254883 -14.64492676 16.22509766 -15.36352539 16.59863281 C-19.04678972 18.40677269 -21.08925858 19.29568868 -25 18 C-24.01 17.50371094 -23.02 17.00742187 -22 16.49609375 C-9.47973604 10.14079709 -9.47973604 10.14079709 0 0 Z " fill="#2B3142" transform="translate(481,572)"/>
<path d="M0 0 C0 3.62854667 -0.76729002 4.30028225 -2.9375 7.125 C-8.13126358 14.27706788 -11.98422997 22.15058103 -16 30 C-16.66 30 -17.32 30 -18 30 C-17.04372949 26.83695138 -16.13779207 24.20923982 -14.3125 21.4375 C-12.67463055 19.07242813 -12.67463055 19.07242813 -13.6875 16.5625 C-14 14 -14 14 -12.8125 12.3515625 C-11.26797205 10.76990648 -9.78045972 9.31168045 -8 8 C-7.34 8 -6.68 8 -6 8 C-5.938125 7.4225 -5.87625 6.845 -5.8125 6.25 C-4.67972699 3.11309013 -2.65802405 1.90832496 0 0 Z " fill="#99997B" transform="translate(296,213)"/>
<path d="M0 0 C0.66 0 1.32 0 2 0 C2.80652508 2.88167681 3.17515006 5.56031547 3.31640625 8.546875 C3.35830078 9.39121094 3.40019531 10.23554687 3.44335938 11.10546875 C3.48267578 11.97816406 3.52199219 12.85085938 3.5625 13.75 C3.60568359 14.63816406 3.64886719 15.52632812 3.69335938 16.44140625 C3.79913615 18.62745963 3.90122546 20.81362089 4 23 C3.34 23 2.68 23 2 23 C1.67 23.66 1.34 24.32 1 25 C-1.80728294 22.19271706 -1.08453836 14.69573447 -1.125 10.875 C-1.09058821 7.15852655 -0.76800007 3.64800033 0 0 Z " fill="#121E43" transform="translate(310,522)"/>
<path d="M0 0 C0.66 1.32 1.32 2.64 2 4 C0.37660195 5.70884005 -1.29319053 7.37446717 -3 9 C-3.66 9 -4.32 9 -5 9 C-5.33 9.99 -5.66 10.98 -6 12 C-6.67546875 12.42925781 -7.3509375 12.85851562 -8.046875 13.30078125 C-10.31293004 14.89439982 -10.31293004 14.89439982 -10.390625 17.91796875 C-10.34421875 18.99691406 -10.2978125 20.07585937 -10.25 21.1875 C-10.21390625 22.27417969 -10.1778125 23.36085938 -10.140625 24.48046875 C-10.09421875 25.31191406 -10.0478125 26.14335937 -10 27 C-10.33 27 -10.66 27 -11 27 C-11.36590746 25.27327966 -11.71722195 23.54346345 -12.0625 21.8125 C-12.25972656 20.84957031 -12.45695312 19.88664062 -12.66015625 18.89453125 C-13.02952109 15.74856172 -13.11400041 13.97066775 -12 11 C-10.01984699 8.8948445 -8.1175753 7.05364445 -5.9375 5.1875 C-5.36966797 4.68541016 -4.80183594 4.18332031 -4.21679688 3.66601562 C-2.82020396 2.43372776 -1.4112768 1.21544352 0 0 Z " fill="#848874" transform="translate(441,379)"/>
<path d="M0 0 C1.65 0.33 3.3 0.66 5 1 C5.33 1.99 5.66 2.98 6 4 C0.72 9.28 -4.56 14.56 -10 20 C-10.33 19.01 -10.66 18.02 -11 17 C-8.75 13.8125 -8.75 13.8125 -6 11 C-5.01 11 -4.02 11 -3 11 C-2.87625 9.9275 -2.7525 8.855 -2.625 7.75 C-2.10356064 4.62136385 -1.59911746 2.66519576 0 0 Z " fill="#163249" transform="translate(467,344)"/>
<path d="M0 0 C0.33 0 0.66 0 1 0 C2.47317858 10.74631163 3.28435784 21.14700916 3 32 C-0.89733689 30.77207194 -3.86137911 29.65575614 -7 27 C-5.02 27 -3.04 27 -1 27 C-1 26.34 -1 25.68 -1 25 C-0.34 25 0.32 25 1 25 C0.9278125 24.11699219 0.855625 23.23398437 0.78125 22.32421875 C0.20421489 14.86283421 -0.13744335 7.48302669 0 0 Z " fill="#9F9D83" transform="translate(250,593)"/>
<path d="M0 0 C-1.62170379 1.00533667 -3.24747237 2.00411907 -4.875 3 C-5.77992188 3.556875 -6.68484375 4.11375 -7.6171875 4.6875 C-10 6 -10 6 -12 6 C-12 7.65 -12 9.3 -12 11 C-14.875 11.125 -14.875 11.125 -18 11 C-18.66 10.34 -19.32 9.68 -20 9 C-20.99 8.67 -21.98 8.34 -23 8 C-19.81909067 4.81909067 -15.67480032 3.83755517 -11.5 2.3125 C-10.61957031 1.97927734 -9.73914063 1.64605469 -8.83203125 1.30273438 C-7.99027344 0.99271484 -7.14851563 0.68269531 -6.28125 0.36328125 C-5.50845703 0.07751221 -4.73566406 -0.20825684 -3.93945312 -0.50268555 C-2 -1 -2 -1 0 0 Z " fill="#19344E" transform="translate(322,52)"/>
<path d="M0 0 C0.99 0.33 1.98 0.66 3 1 C-3.86113294 5.57408863 -13.85574583 4.18325187 -21.8125 4.1875 C-23.03904297 4.19974609 -24.26558594 4.21199219 -25.52929688 4.22460938 C-26.70169922 4.22654297 -27.87410156 4.22847656 -29.08203125 4.23046875 C-30.14655518 4.23457764 -31.2110791 4.23868652 -32.30786133 4.24291992 C-35 4 -35 4 -38 2 C-32.04943631 1.0262714 -26.54433857 1.06682786 -20.5625 1.5 C-10.02879722 2.52106298 -10.02879722 2.52106298 0 0 Z " fill="#929277" transform="translate(379,659)"/>
<path d="M0 0 C0 3.77064259 -1.16328111 5.07934098 -3.25 8.1875 C-6.19504508 12.67973914 -8.71013126 17.14547828 -11 22 C-11.66 21.67 -12.32 21.34 -13 21 C-13 20.34 -13 19.68 -13 19 C-12.34 19 -11.68 19 -11 19 C-11.33 17.68 -11.66 16.36 -12 15 C-12.99 15.99 -13.98 16.98 -15 18 C-15.66 17.67 -16.32 17.34 -17 17 C-11.39 11.39 -5.78 5.78 0 0 Z " fill="#909886" transform="translate(508,312)"/>
<path d="M0 0 C0.99 0 1.98 0 3 0 C3.05411124 2.41696872 3.09372278 4.83271787 3.125 7.25 C3.15013672 8.27287109 3.15013672 8.27287109 3.17578125 9.31640625 C3.21213482 13.0608235 3.07944349 15.82352727 1 19 C0.67 18.34 0.34 17.68 0 17 C-0.66 17 -1.32 17 -2 17 C-2.18188153 12.36202089 -1.78639337 9.24268426 0 5 C0.16798262 2.29113059 0.16798262 2.29113059 0 0 Z " fill="#131F3F" transform="translate(317,327)"/>
<path d="M0 0 C3.96324843 3.79093328 4.2347704 6.58247441 4.71875 11.90625 C4.892155 14.05443933 4.892155 14.05443933 6 16 C6.06950541 17.54023996 6.08452357 19.08334988 6.0625 20.625 C6.05347656 21.44226563 6.04445313 22.25953125 6.03515625 23.1015625 C6.02355469 23.72804688 6.01195312 24.35453125 6 25 C6.66 25.33 7.32 25.66 8 26 C8.4140625 28.94140625 8.4140625 28.94140625 8.625 32.5625 C8.69976562 33.76003906 8.77453125 34.95757812 8.8515625 36.19140625 C8.90054687 37.11824219 8.94953125 38.04507813 9 39 C6.54649725 36.54649725 6.43623651 35.13529917 5.78125 31.7578125 C5.57113281 30.69046875 5.36101562 29.623125 5.14453125 28.5234375 C4.93183594 27.40195312 4.71914063 26.28046875 4.5 25.125 C4.28730469 24.0421875 4.07460938 22.959375 3.85546875 21.84375 C2.44311607 14.58269756 1.1799531 7.30219581 0 0 Z " fill="#868875" transform="translate(437,438)"/>
<path d="M0 0 C0.33 0.66 0.66 1.32 1 2 C-0.125 4.1875 -0.125 4.1875 -2 7 C-2.36480469 7.598125 -2.72960937 8.19625 -3.10546875 8.8125 C-5.30778907 12.2335801 -6.47438815 13.77190429 -10.3125 15.4375 C-11.6428125 15.7159375 -11.6428125 15.7159375 -13 16 C-13 17.32 -13 18.64 -13 20 C-13.66 19.67 -14.32 19.34 -15 19 C-15 16 -15 16 -12.734375 13.4765625 C-11.74693849 12.51840309 -10.75178056 11.56815218 -9.75 10.625 C-6.23274564 7.2646835 -2.95918421 3.87512217 0 0 Z " fill="#898D73" transform="translate(193,320)"/>
<path d="M0 0 C0.99 0.33 1.98 0.66 3 1 C3 1.66 3 2.32 3 3 C3.99 3 4.98 3 6 3 C6.3403125 4.175625 6.3403125 4.175625 6.6875 5.375 C7.78125 8.21875 7.78125 8.21875 10.625 9.3125 C11.800625 9.6528125 11.800625 9.6528125 13 10 C12.67 11.32 12.34 12.64 12 14 C8.28954753 12.42219077 5.70093616 10.09296752 2.75 7.375 C1.85796875 6.55773437 0.9659375 5.74046875 0.046875 4.8984375 C-0.96632813 3.95871094 -0.96632813 3.95871094 -2 3 C-1 1 -1 1 0 0 Z " fill="#182341" transform="translate(570,289)"/>
<path d="M0 0 C1.2065625 0.0309375 1.2065625 0.0309375 2.4375 0.0625 C1.16796875 1.52734375 -0.1015625 2.9921875 -1.37109375 4.45703125 C-2.77121231 6.16962971 -2.77121231 6.16962971 -3.5625 9.0625 C-4.8825 9.0625 -6.2025 9.0625 -7.5625 9.0625 C-7.5625 9.7225 -7.5625 10.3825 -7.5625 11.0625 C-8.5525 11.0625 -9.5425 11.0625 -10.5625 11.0625 C-9.16616572 6.61961819 -6.95848172 4.19725236 -3.5625 1.0625 C-2.5625 0.0625 -2.5625 0.0625 0 0 Z " fill="#1F2744" transform="translate(333.5625,286.9375)"/>
<path d="M0 0 C-2 5 -4 10 -6 15 C-6.87840996 11.90279155 -6.99435406 10.09354597 -6 7 C-6.66 7 -7.32 7 -8 7 C-8.66 8.32 -9.32 9.64 -10 11 C-10.33 10.34 -10.66 9.68 -11 9 C-10.07421875 7.08984375 -10.07421875 7.08984375 -8.6875 4.9375 C-8.23761719 4.22464844 -7.78773438 3.51179688 -7.32421875 2.77734375 C-5.04111006 -0.28700567 -3.94803507 0 0 0 Z " fill="#293146" transform="translate(543,408)"/>
<path d="M0 0 C0.99 0.33 1.98 0.66 3 1 C4.04976964 4.14930893 4.10131595 6.38814456 4.0625 9.6875 C4.05347656 10.68136719 4.04445313 11.67523437 4.03515625 12.69921875 C4.02355469 13.45847656 4.01195312 14.21773437 4 15 C3.01 15 2.02 15 1 15 C0.63807496 12.87630763 0.28568253 10.7509887 -0.0625 8.625 C-0.25972656 7.44164062 -0.45695312 6.25828125 -0.66015625 5.0390625 C-1 2 -1 2 0 0 Z " fill="#151F42" transform="translate(325,639)"/>
<path d="M0 0 C0.20674944 5.78898419 -0.40837921 10.42932723 -2 16 C-4.02466144 12.96300784 -4.44458353 11.52731545 -4.875 8 C-4.99617187 7.13375 -5.11734375 6.2675 -5.2421875 5.375 C-5 3 -5 3 -3.0703125 1.1875 C-1 0 -1 0 0 0 Z " fill="#1F2742" transform="translate(637,461)"/>
<path d="M0 0 C0.66 0.33 1.32 0.66 2 1 C1.5 4.3125 1.5 4.3125 0 8 C-3.48212292 10.18102731 -6.9219266 11 -11 11 C-7.37 7.37 -3.74 3.74 0 0 Z " fill="#18334C" transform="translate(118,165)"/>
<path d="M0 0 C0.33 1.32 0.66 2.64 1 4 C0.46890625 4.45890625 -0.0621875 4.9178125 -0.609375 5.390625 C-4.18324699 8.49493717 -7.71854059 11.58181312 -11 15 C-11.66 14.67 -12.32 14.34 -13 14 C-8.83295817 9.14256071 -4.58155004 4.46980492 0 0 Z " fill="#808974" transform="translate(99,421)"/>
<path d="M0 0 C2.48904468 2.48904468 2.35528113 3.55849404 2.6328125 7.0078125 C2.71660156 7.99394531 2.80039063 8.98007812 2.88671875 9.99609375 C2.96535156 11.02863281 3.04398437 12.06117188 3.125 13.125 C3.21136719 14.16527344 3.29773438 15.20554687 3.38671875 16.27734375 C3.59922379 18.85101589 3.80329156 21.42508017 4 24 C1.17536801 21.17536801 1.03757736 17.98379783 0.375 14.1875 C0.2409375 13.47529297 0.106875 12.76308594 -0.03125 12.02929688 C-0.70260756 8.3265544 -1.27253736 4.76531879 -1 1 C-0.67 0.67 -0.34 0.34 0 0 Z " fill="#939278" transform="translate(71,460)"/>
<path d="M0 0 C1.98 0 3.96 0 6 0 C6.87867729 3.73437848 7.08912219 7.16774573 7 11 C4 10 4 10 2.83203125 8.22265625 C2.49558594 7.50980469 2.15914062 6.79695313 1.8125 6.0625 C1.46832031 5.35222656 1.12414062 4.64195312 0.76953125 3.91015625 C0 2 0 2 0 0 Z " fill="#172242" transform="translate(593,321)"/>
<path d="M0 0 C0.33 0 0.66 0 1 0 C1 3.96 1 7.92 1 12 C2.32 11.67 3.64 11.34 5 11 C4.54738642 12.43931117 4.08767021 13.87638999 3.625 15.3125 C3.36976562 16.11300781 3.11453125 16.91351563 2.8515625 17.73828125 C2 20 2 20 0 23 C0 15.41 0 7.82 0 0 Z " fill="#787F74" transform="translate(70,438)"/>
<path d="M0 0 C0.33 0.99 0.66 1.98 1 3 C-3.95 5.97 -8.9 8.94 -14 12 C-14.66 11.34 -15.32 10.68 -16 10 C-14.68 9.67 -13.36 9.34 -12 9 C-12 8.34 -12 7.68 -12 7 C-9.116435 5.07762333 -6.0940474 3.5470237 -3 2 C-2.01 1.34 -1.02 0.68 0 0 Z " fill="#98967C" transform="translate(497,600)"/>
<path d="M0 0 C0.66 0.33 1.32 0.66 2 1 C-2.62 5.62 -7.24 10.24 -12 15 C-12.33 13.68 -12.66 12.36 -13 11 C-12.01 11 -11.02 11 -10 11 C-10 10.01 -10 9.02 -10 8 C-6.66666667 5 -6.66666667 5 -4 5 C-4 4.34 -4 3.68 -4 3 C-2 1.375 -2 1.375 0 0 Z " fill="#213643" transform="translate(510,308)"/>
<path d="M0 0 C0 3 0 3 -1.5 4.6875 C-1.995 5.120625 -2.49 5.55375 -3 6 C-3.66 5.67 -4.32 5.34 -5 5 C-5 5.99 -5 6.98 -5 8 C-5.61875 8.28875 -6.2375 8.5775 -6.875 8.875 C-9.13325765 9.93720042 -9.13325765 9.93720042 -11 12 C-12.32 11.67 -13.64 11.34 -15 11 C-10.05 7.37 -5.1 3.74 0 0 Z " fill="#233B52" transform="translate(137,151)"/>
<path d="M0 0 C1 2 1 2 0.25 4.5625 C-1 7 -1 7 -4 8 C-5.84399021 9.9466718 -7.49469912 12.00800719 -9.18359375 14.08984375 C-11.02321723 16.02441554 -12.55756696 16.97471492 -15 18 C-14.195625 17.071875 -13.39125 16.14375 -12.5625 15.1875 C-8.28354449 10.20051588 -4.14725424 5.09651465 0 0 Z " fill="#868D78" transform="translate(255,253)"/>
<path d="M0 0 C0.33 0.99 0.66 1.98 1 3 C-0.14453125 4.71875 -0.14453125 4.71875 -1.8125 6.5 C-3.78396895 8.63536779 -5.37344861 10.56017292 -7 13 C-9.625 13.6875 -9.625 13.6875 -12 14 C-11.07161713 12.68103535 -10.13194268 11.37001311 -9.1875 10.0625 C-8.66542969 9.33160156 -8.14335937 8.60070312 -7.60546875 7.84765625 C-6 6 -6 6 -3 5 C-1.8499169 3.03327085 -1.8499169 3.03327085 -1 1 C-0.67 0.67 -0.34 0.34 0 0 Z " fill="#8D9177" transform="translate(276,230)"/>
<path d="M0 0 C1 4 1 4 0.00390625 5.703125 C-1.33072917 7.13541667 -2.66536458 8.56770833 -4 10 C-4.33 9.34 -4.66 8.68 -5 8 C-5.99 7.67 -6.98 7.34 -8 7 C-5.36 4.69 -2.72 2.38 0 0 Z " fill="#1B2541" transform="translate(490,564)"/>
<path d="M0 0 C0.66 0 1.32 0 2 0 C2.33 3.63 2.66 7.26 3 11 C1.68 10.67 0.36 10.34 -1 10 C-1.9765625 3.9453125 -1.9765625 3.9453125 -2 2 C-1.34 1.34 -0.68 0.68 0 0 Z " fill="#121E40" transform="translate(433,432)"/>
<path d="M0 0 C0 3 0 3 -1.96875 5.19140625 C-3.22171875 6.36509766 -3.22171875 6.36509766 -4.5 7.5625 C-6.03509839 9.00520821 -7.5439736 10.47752795 -9 12 C-9 12.66 -9 13.32 -9 14 C-11.5 15.625 -11.5 15.625 -14 17 C-13.4194679 13.69881206 -12.45131901 12.08865924 -10.05859375 9.765625 C-9.18364258 8.90517578 -9.18364258 8.90517578 -8.29101562 8.02734375 C-7.67935547 7.44082031 -7.06769531 6.85429687 -6.4375 6.25 C-5.82197266 5.64800781 -5.20644531 5.04601562 -4.57226562 4.42578125 C-3.05485187 2.94365619 -1.52829404 1.4709033 0 0 Z " fill="#E4ECF1" transform="translate(311,198)"/>
<path d="M0 0 C0.66 0.99 1.32 1.98 2 3 C-4.07439825 8.88183807 -4.07439825 8.88183807 -7.9375 9.375 C-8.618125 9.25125 -9.29875 9.1275 -10 9 C-6.83047153 5.73991357 -3.60062011 2.77762123 0 0 Z " fill="#8B8C75" transform="translate(483,576)"/>
<path d="M0 0 C1.125 1.625 1.125 1.625 2 4 C1.25 7.1875 1.25 7.1875 0 10 C-0.99 10.495 -0.99 10.495 -2 11 C-3.39935013 8.20129973 -3.25265405 6.09501208 -3 3 C-1.5 1.125 -1.5 1.125 0 0 Z " fill="#161F3F" transform="translate(511,513)"/>
<path d="M0 0 C0.33 1.32 0.66 2.64 1 4 C-1.67235841 7.13047699 -4.64019009 9.63568932 -8 12 C-8.66 11.67 -9.32 11.34 -10 11 C-6.7 7.37 -3.4 3.74 0 0 Z " fill="#878F71" transform="translate(237,273)"/>
<path d="M0 0 C0 0.66 0 1.32 0 2 C-4.62 4.64 -9.24 7.28 -14 10 C-14 9.01 -14 8.02 -14 7 C-13.01 7 -12.02 7 -11 7 C-10.67 6.01 -10.34 5.02 -10 4 C-7.625 2.9375 -7.625 2.9375 -5 2 C-2 0 -2 0 0 0 Z " fill="#96967B" transform="translate(453,628)"/>
<path d="M0 0 C0.66 0 1.32 0 2 0 C2.33 0.99 2.66 1.98 3 3 C-0.3 6.3 -3.6 9.6 -7 13 C-7.33 12.01 -7.66 11.02 -8 10 C-7.01 9.67 -6.02 9.34 -5 9 C-4.67 8.01 -4.34 7.02 -4 6 C-3.34 6 -2.68 6 -2 6 C-2 5.01 -2 4.02 -2 3 C-1.34 2.67 -0.68 2.34 0 2 C0 1.34 0 0.68 0 0 Z " fill="#253C45" transform="translate(453,362)"/>
<path d="M0 0 C0.28875 0.639375 0.5775 1.27875 0.875 1.9375 C1.82823451 4.15206079 1.82823451 4.15206079 4 5 C4.05399736 6.45792884 4.09279177 7.91642712 4.125 9.375 C4.14820313 10.18710937 4.17140625 10.99921875 4.1953125 11.8359375 C4 14 4 14 2 16 C0.80911014 10.61972975 -0.2919519 5.54708616 0 0 Z " fill="#28304C" transform="translate(400,284)"/>
<path d="M0 0 C0 0.66 0 1.32 0 2 C-1.26418246 2.69965443 -2.53665402 3.38434763 -3.8125 4.0625 C-4.52019531 4.44535156 -5.22789062 4.82820313 -5.95703125 5.22265625 C-8 6 -8 6 -11 5 C-11 4.34 -11 3.68 -11 3 C-7.14243493 0.84694043 -4.44870215 -0.39253254 0 0 Z " fill="#17324B" transform="translate(238,97)"/>
<path d="M0 0 C-5.94 3.465 -5.94 3.465 -12 7 C-12 6.34 -12 5.68 -12 5 C-12.66 4.67 -13.32 4.34 -14 4 C-11.36 3.34 -8.72 2.68 -6 2 C-6 1.34 -6 0.68 -6 0 C-4 -1 -4 -1 0 0 Z " fill="#96957A" transform="translate(529,584)"/>
<path d="M0 0 C1.66666667 0 3.33333333 0 5 0 C5.33 2.31 5.66 4.62 6 7 C5.01 7.66 4.02 8.32 3 9 C0 3.375 0 3.375 0 0 Z " fill="#99987B" transform="translate(80,500)"/>
<path d="M0 0 C0.33 0 0.66 0 1 0 C0.91239411 2.06326977 0.80420727 4.1256716 0.6875 6.1875 C0.62949219 7.33605469 0.57148437 8.48460937 0.51171875 9.66796875 C-0.02254506 13.14680104 -0.9947326 15.14531638 -3 18 C-4.63129887 13.93714243 -3.29968777 10.79897816 -2.0625 6.75 C-1.68222656 5.48671875 -1.30195312 4.2234375 -0.91015625 2.921875 C-0.60980469 1.95765625 -0.30945313 0.9934375 0 0 Z " fill="#32485D" transform="translate(78,222)"/>
<path d="M0 0 C0 0.66 0 1.32 0 2 C-1.74574388 3.59878075 -3.59881337 5.01415879 -5.46875 6.46484375 C-7.35310272 7.99262375 -7.35310272 7.99262375 -7 11 C-8.32 11.33 -9.64 11.66 -11 12 C-11.33 11.01 -11.66 10.02 -12 9 C-11.34 9 -10.68 9 -10 9 C-10 8.34 -10 7.68 -10 7 C-8.3203125 5.2734375 -8.3203125 5.2734375 -6.125 3.375 C-5.04605469 2.42753906 -5.04605469 2.42753906 -3.9453125 1.4609375 C-2 0 -2 0 0 0 Z " fill="#848B6F" transform="translate(290,219)"/>
<path d="M0 0 C1.77433812 0.93084971 3.54435149 1.86994613 5.3125 2.8125 C6.29863281 3.33457031 7.28476562 3.85664063 8.30078125 4.39453125 C10.61665068 5.7719876 12.23611001 6.99530591 14 9 C11.75 9.25 11.75 9.25 9 9 C6.9375 7.125 6.9375 7.125 5 5 C4.278125 4.649375 3.55625 4.29875 2.8125 3.9375 C1 3 1 3 0 0 Z " fill="#243C52" transform="translate(569,147)"/>
<path d="M0 0 C0 0.66 0 1.32 0 2 C-1.59915881 2.69906942 -3.20455045 3.38389468 -4.8125 4.0625 C-5.70582031 4.44535156 -6.59914063 4.82820312 -7.51953125 5.22265625 C-10 6 -10 6 -13 5 C-10.09527326 1.00600073 -4.73773335 0 0 0 Z " fill="#97977D" transform="translate(416,649)"/>
<path d="M0 0 C1.5625 1.8125 1.5625 1.8125 3 4 C2.67 4.99 2.34 5.98 2 7 C-0.5625 8.1875 -0.5625 8.1875 -3 9 C-3.26218749 5.85375007 -3.24754367 4.38162983 -1.5 1.6875 C-1.005 1.130625 -0.51 0.57375 0 0 Z " fill="#151F40" transform="translate(521,472)"/>
<path d="M0 0 C0 1.66666667 0 3.33333333 0 5 C-0.59296875 5.25523437 -1.1859375 5.51046875 -1.796875 5.7734375 C-4.21224538 7.11816498 -5.51211706 8.49214367 -7.25 10.625 C-7.77078125 11.25664062 -8.2915625 11.88828125 -8.828125 12.5390625 C-9.21484375 13.02117187 -9.6015625 13.50328125 -10 14 C-10.66 13.67 -11.32 13.34 -12 13 C-8.04 8.71 -4.08 4.42 0 0 Z " fill="#838C75" transform="translate(124,394)"/>
<path d="M0 0 C0.33 0.66 0.66 1.32 1 2 C-0.3125 4.625 -0.3125 4.625 -2 7 C-2.66 7 -3.32 7 -4 7 C-4 7.66 -4 8.32 -4 9 C-5.62626404 10.38232443 -7.2925002 11.71937515 -9 13 C-9.66 12.67 -10.32 12.34 -11 12 C-10.45730469 11.46890625 -9.91460937 10.9378125 -9.35546875 10.390625 C-8.64003906 9.68421875 -7.92460937 8.9778125 -7.1875 8.25 C-6.47980469 7.55390625 -5.77210938 6.8578125 -5.04296875 6.140625 C-3.17724121 4.18571355 -1.56830358 2.19661447 0 0 Z " fill="#838C76" transform="translate(163,352)"/>
<path d="M0 0 C0.66 0 1.32 0 2 0 C0.59155282 3.21524305 -1.10344786 5.32183868 -3.625 7.75 C-4.57246094 8.67039062 -4.57246094 8.67039062 -5.5390625 9.609375 C-6.02117187 10.06828125 -6.50328125 10.5271875 -7 11 C-7.33 10.01 -7.66 9.02 -8 8 C-5.75 4.8125 -5.75 4.8125 -3 2 C-2.01 2 -1.02 2 0 2 C0 1.34 0 0.68 0 0 Z " fill="#273A41" transform="translate(464,353)"/>
<path d="M0 0 C-1.31061591 4.23429756 -2.94356259 8.07407404 -5 12 C-5.66 11.67 -6.32 11.34 -7 11 C-7 10.34 -7 9.68 -7 9 C-6.34 9 -5.68 9 -5 9 C-5.0928125 7.6078125 -5.0928125 7.6078125 -5.1875 6.1875 C-5 3 -5 3 -3.625 1.125 C-2 0 -2 0 0 0 Z " fill="#9E9B7C" transform="translate(502,322)"/>
<path d="M0 0 C0.99 0.99 1.98 1.98 3 3 C2.690625 3.7425 2.38125 4.485 2.0625 5.25 C1.1905075 7.50692176 0.52332993 9.6450153 0 12 C-0.99 10.02 -1.98 8.04 -3 6 C-2.34 6 -1.68 6 -1 6 C-1.0309375 4.7934375 -1.0309375 4.7934375 -1.0625 3.5625 C-1 1 -1 1 0 0 Z " fill="#1C294A" transform="translate(379,217)"/>
<path d="M0 0 C0.66 0.33 1.32 0.66 2 1 C2 1.99 2 2.98 2 4 C2.99 4.33 3.98 4.66 5 5 C5 5.66 5 6.32 5 7 C0.94718288 5.77472971 -2.44360764 4.30119506 -6 2 C-5.38125 1.855625 -4.7625 1.71125 -4.125 1.5625 C-1.96741678 1.06847775 -1.96741678 1.06847775 0 0 Z " fill="#979579" transform="translate(190,587)"/>
<path d="M0 0 C3.77545388 1.09068668 6.47043472 1.9083091 9 5 C8.01 5 7.02 5 6 5 C5.67 5.66 5.34 6.32 5 7 C4.01 6.67 3.02 6.34 2 6 C0.8125 2.9375 0.8125 2.9375 0 0 Z " fill="#1D354F" transform="translate(507,112)"/>
<path d="M0 0 C2.375 0.6875 2.375 0.6875 5 2 C6.3125 4.625 6.3125 4.625 7 7 C6.34 7.66 5.68 8.32 5 9 C2.875 8.625 2.875 8.625 1 8 C1.66 8 2.32 8 3 8 C2.01 5.36 1.02 2.72 0 0 Z " fill="#74776E" transform="translate(446,478)"/>
<path d="M0 0 C0.99 0.33 1.98 0.66 3 1 C4.1875 3.5625 4.1875 3.5625 5 6 C2.69 6 0.38 6 -2 6 C-1.125 1.125 -1.125 1.125 0 0 Z " fill="#97967A" transform="translate(543,409)"/>
<path d="M0 0 C2.96404505 2.80804268 5.44499019 5.18315774 7 9 C4 9 4 9 2.375 7.625 C1 6 1 6 0 4 C-0.66 3.67 -1.32 3.34 -2 3 C-1.34 3 -0.68 3 0 3 C0 2.01 0 1.02 0 0 Z " fill="#A09E81" transform="translate(580,539)"/>
<path d="M0 0 C0.66 1.32 1.32 2.64 2 4 C-0.97 6.475 -0.97 6.475 -4 9 C-4.99 8.01 -5.98 7.02 -7 6 C-4.69 4.02 -2.38 2.04 0 0 Z " fill="#8D9074" transform="translate(441,379)"/>
<path d="M0 0 C0.66 0.99 1.32 1.98 2 3 C0.1875 5 0.1875 5 -2 7 C-2.99 7 -3.98 7 -5 7 C-5.33 7.66 -5.66 8.32 -6 9 C-6 6 -6 6 -4.6875 4.39453125 C-4.130625 3.87246094 -3.57375 3.35039062 -3 2.8125 C-2.443125 2.28269531 -1.88625 1.75289063 -1.3125 1.20703125 C-0.6628125 0.60955078 -0.6628125 0.60955078 0 0 Z " fill="#8F9174" transform="translate(449,371)"/>
<path d="M0 0 C1.74627478 2.61941217 2.38722388 4.03824877 3 7 C2.01 7.495 2.01 7.495 1 8 C-0.65 6.35 -2.3 4.7 -4 3 C-3.67 2.34 -3.34 1.68 -3 1 C-1.515 1.99 -1.515 1.99 0 3 C0 2.01 0 1.02 0 0 Z " fill="#162242" transform="translate(587,304)"/>
<path d="M0 0 C0.33 0.99 0.66 1.98 1 3 C-0.25 5.1875 -0.25 5.1875 -2 7 C-2.99 7 -3.98 7 -5 7 C-5 8.32 -5 9.64 -5 11 C-5.66 11 -6.32 11 -7 11 C-5.72278474 6.00724943 -3.82669043 3.42388092 0 0 Z " fill="#888C74" transform="translate(336,287)"/>
<path d="M0 0 C3.96 1.98 7.92 3.96 12 6 C11.34 6.66 10.68 7.32 10 8 C8.02 7.34 6.04 6.68 4 6 C4 5.01 4 4.02 4 3 C2.68 2.67 1.36 2.34 0 2 C0 1.34 0 0.68 0 0 Z " fill="#23394F" transform="translate(449,78)"/>
<path d="M0 0 C0.91330404 3.03050885 1.06558338 5.47968569 0.75 8.625 C0.68296875 9.40101563 0.6159375 10.17703125 0.546875 10.9765625 C0 13 0 13 -3 15 C-2.44854729 9.76119922 -1.57077907 5.02649303 0 0 Z " fill="#818470" transform="translate(531,445)"/>
<path d="M0 0 C0.33 0 0.66 0 1 0 C0.91284983 1.93833996 0.80467036 3.8757429 0.6875 5.8125 C0.62949219 6.89144531 0.57148438 7.97039062 0.51171875 9.08203125 C-0.03068507 12.17497517 -0.55289624 13.13022903 -3 15 C-2.44854729 9.76119922 -1.57077907 5.02649303 0 0 Z " fill="#ECEBDB" transform="translate(471,426)"/>
<path d="M0 0 C1.32 0.99 2.64 1.98 4 3 C2.35 4.32 0.7 5.64 -1 7 C-1.33 6.34 -1.66 5.68 -2 5 C-2.99 5.495 -2.99 5.495 -4 6 C-2.84826645 3.53199953 -1.95216435 1.95216435 0 0 Z " fill="#1C344C" transform="translate(157,353)"/>
<path d="M0 0 C0.99 0.33 1.98 0.66 3 1 C0.36 3.64 -2.28 6.28 -5 9 C-5.33 8.01 -5.66 7.02 -6 6 C-4 4 -2 2 0 0 Z " fill="#2B3F54" transform="translate(306,200)"/>
<path d="M0 0 C0.99 0.33 1.98 0.66 3 1 C3 2.98 3 4.96 3 7 C1.68 7.33 0.36 7.66 -1 8 C-1.93065133 5.39417629 -2.14917407 4.35801776 -1.0625 1.75 C-0.711875 1.1725 -0.36125 0.595 0 0 Z " fill="#131E3D" transform="translate(314,563)"/>
<path d="M0 0 C1.07033136 3.21822604 0.95795392 5.03142433 -0.25 8.1875 C-0.62898438 9.22970703 -0.62898438 9.22970703 -1.015625 10.29296875 C-2 12 -2 12 -5 13 C-3.58192622 8.52761347 -1.88695626 4.28853694 0 0 Z " fill="#838672" transform="translate(509,534)"/>
<path d="M0 0 C1.90389849 2.85584773 2.69462177 4.9311762 3.625 8.1875 C4.01558594 9.53908203 4.01558594 9.53908203 4.4140625 10.91796875 C4.60742188 11.60503906 4.80078125 12.29210937 5 13 C3.046875 12.3515625 3.046875 12.3515625 1 11 C0.390625 8.3984375 0.390625 8.3984375 0.25 5.375 C0.19328125 4.37210938 0.1365625 3.36921875 0.078125 2.3359375 C0.05234375 1.56507813 0.0265625 0.79421875 0 0 Z " fill="#A7A68A" transform="translate(570,515)"/>
<path d="M0 0 C0.99 0.495 0.99 0.495 2 1 C2 2.65 2 4.3 2 6 C2.66 6 3.32 6 4 6 C4 9.3 4 12.6 4 16 C3.67 16 3.34 16 3 16 C2.01 10.72 1.02 5.44 0 0 Z " fill="#838774" transform="translate(433,418)"/>
<path d="M0 0 C0.66 0 1.32 0 2 0 C1.01 4.95 0.02 9.9 -1 15 C-1.33 15 -1.66 15 -2 15 C-2.05406122 13.06280622 -2.09282025 11.12518079 -2.125 9.1875 C-2.14820313 8.10855469 -2.17140625 7.02960938 -2.1953125 5.91796875 C-2 3 -2 3 0 0 Z " fill="#A2A084" transform="translate(487,352)"/>
<path d="M0 0 C0 0.99 0 1.98 0 3 C-0.66 3 -1.32 3 -2 3 C-2 3.66 -2 4.32 -2 5 C-3.65 5 -5.3 5 -7 5 C-7 5.66 -7 6.32 -7 7 C-8.32 6.67 -9.64 6.34 -11 6 C-7.37 4.02 -3.74 2.04 0 0 Z " fill="#283F56" transform="translate(265,79)"/>
<path d="M0 0 C0.75 1.75 0.75 1.75 1 4 C-0.8125 6.25 -0.8125 6.25 -3 8 C-3.66 8 -4.32 8 -5 8 C-4.45773019 4.20411134 -2.79872437 2.52788007 0 0 Z " fill="#8C9176" transform="translate(99,421)"/>
<path d="M0 0 C0.99 0 1.98 0 3 0 C2.34 1.65 1.68 3.3 1 5 C0.34 5 -0.32 5 -1 5 C-1.33 5.66 -1.66 6.32 -2 7 C-2.33 5.35 -2.66 3.7 -3 2 C-2.01 2 -1.02 2 0 2 C0 1.34 0 0.68 0 0 Z " fill="#152039" transform="translate(326,296)"/>
<path d="M0 0 C5.75 0.75 5.75 0.75 8 3 C7.01 3.99 6.02 4.98 5 6 C4.01 5.67 3.02 5.34 2 5 C2 4.34 2 3.68 2 3 C1.34 2.67 0.68 2.34 0 2 C0 1.34 0 0.68 0 0 Z " fill="#15324F" transform="translate(548,137)"/>
<path d="M0 0 C0 0.66 0 1.32 0 2 C-3.96 3.98 -3.96 3.98 -8 6 C-8.66 5.34 -9.32 4.68 -10 4 C-9.01 4 -8.02 4 -7 4 C-7 3.34 -7 2.68 -7 2 C-4.35261084 0.5393715 -3.10551666 0 0 0 Z " fill="#99987C" transform="translate(470,618)"/>
<path d="M0 0 C1.4835001 0.42257276 2.96176424 0.86356322 4.4375 1.3125 C5.67306641 1.67794922 5.67306641 1.67794922 6.93359375 2.05078125 C7.61550781 2.36402344 8.29742187 2.67726563 9 3 C9.33 3.99 9.66 4.98 10 6 C6.51329166 4.8905928 3.22515763 3.73662334 0 2 C0 1.34 0 0.68 0 0 Z " fill="#9A9981" transform="translate(211,602)"/>
<path d="M0 0 C1.66905241 3.33810482 2.8741386 6.46157845 4 10 C3.01 10.495 3.01 10.495 2 11 C2 10.34 2 9.68 2 9 C1.34 9 0.68 9 0 9 C0 6.03 0 3.06 0 0 Z " fill="#16203D" transform="translate(603,338)"/>
<path d="M0 0 C2.64 0.99 5.28 1.98 8 3 C7.67 3.99 7.34 4.98 7 6 C2.545 4.02 2.545 4.02 -2 2 C-1.34 1.34 -0.68 0.68 0 0 Z " fill="#2E3851" transform="translate(560,286)"/>
<path d="M0 0 C2 3 2 3 1.625 5.6875 C1.41875 6.450625 1.2125 7.21375 1 8 C0.01 7.67 -0.98 7.34 -2 7 C-2.33 5.02 -2.66 3.04 -3 1 C-2.01 0.67 -1.02 0.34 0 0 Z " fill="#111F40" transform="translate(382,223)"/>
<path d="M0 0 C0.99 0 1.98 0 3 0 C3 0.66 3 1.32 3 2 C4.32 2.33 5.64 2.66 7 3 C6.67 4.65 6.34 6.3 6 8 C3.87961365 5.38485683 1.86908256 2.80362384 0 0 Z " fill="#272E49" transform="translate(370,214)"/>
<path d="M0 0 C1.32 0.33 2.64 0.66 4 1 C1.64722731 3.72426311 -0.62496331 4.8141763 -4 6 C-4 5.34 -4 4.68 -4 4 C-3.34 4 -2.68 4 -2 4 C-1.34 2.68 -0.68 1.36 0 0 Z " fill="#9A9A80" transform="translate(427,641)"/>
<path d="M0 0 C0.33 0.99 0.66 1.98 1 3 C-5.75 7 -5.75 7 -8 7 C-8 6.34 -8 5.68 -8 5 C-5.04518508 2.25624329 -4.22528092 2 0 2 C0 1.34 0 0.68 0 0 Z " fill="#98977F" transform="translate(537,576)"/>
<path d="M0 0 C0.66 0.66 1.32 1.32 2 2 C1.67 2.66 1.34 3.32 1 4 C2.32 4.33 3.64 4.66 5 5 C3 7 3 7 0.375 7.125 C-0.40875 7.08375 -1.1925 7.0425 -2 7 C-1.34 4.69 -0.68 2.38 0 0 Z " fill="#28314A" transform="translate(502,536)"/>
<path d="M0 0 C1.485 0.99 1.485 0.99 3 2 C3 3.32 3 4.64 3 6 C1.68 6 0.36 6 -1 6 C-1.042721 4.33388095 -1.04063832 2.66617115 -1 1 C-0.67 0.67 -0.34 0.34 0 0 Z " fill="#141F3A" transform="translate(504,534)"/>
<path d="M0 0 C3.57104439 1.87949705 5.54744301 3.17053157 7 7 C4.625 6.3125 4.625 6.3125 2 5 C0.6875 2.375 0.6875 2.375 0 0 Z " fill="#A4A287" transform="translate(337,287)"/>
<path d="M0 0 C0.99 0 1.98 0 3 0 C2.60196439 2.88575819 2.20990931 3.82189513 -0.0625 5.75 C-0.701875 6.1625 -1.34125 6.575 -2 7 C-2.33 6.01 -2.66 5.02 -3 4 C-2.34 3.67 -1.68 3.34 -1 3 C-0.67 2.01 -0.34 1.02 0 0 Z " fill="#1D3648" transform="translate(230,276)"/>
<path d="M0 0 C-1 3 -1 3 -3.06640625 4.16796875 C-3.89011719 4.50441406 -4.71382812 4.84085938 -5.5625 5.1875 C-6.38878906 5.53167969 -7.21507812 5.87585938 -8.06640625 6.23046875 C-8.70449219 6.48441406 -9.34257812 6.73835937 -10 7 C-8.60449526 2.81348579 -4.64858615 0 0 0 Z " fill="#284055" transform="translate(149,145)"/>
<path d="M0 0 C-0.33 1.32 -0.66 2.64 -1 4 C-1.99 4 -2.98 4 -4 4 C-4.33 4.66 -4.66 5.32 -5 6 C-6.32 5.34 -7.64 4.68 -9 4 C-2.25 0 -2.25 0 0 0 Z " fill="#243E57" transform="translate(181,127)"/>
<path d="M0 0 C2.91517292 1.07401108 4.77810176 1.77810176 7 4 C3.86650268 5.04449911 3.01031744 4.93423645 0 4 C0 2.68 0 1.36 0 0 Z " fill="#1C374D" transform="translate(523,121)"/>
<path d="M0 0 C0 0.66 0 1.32 0 2 C-2.75 4.1875 -2.75 4.1875 -6 6 C-8.203125 5.61328125 -8.203125 5.61328125 -10 5 C-8.71186658 4.16121545 -7.41936744 3.32913217 -6.125 2.5 C-5.40570313 2.0359375 -4.68640625 1.571875 -3.9453125 1.09375 C-2 0 -2 0 0 0 Z " fill="#294158" transform="translate(284,68)"/>
<path d="M0 0 C1.98 0 3.96 0 6 0 C6 0.66 6 1.32 6 2 C7.32 2.66 8.64 3.32 10 4 C9.01 4.495 9.01 4.495 8 5 C6.0546875 4.22265625 6.0546875 4.22265625 3.875 3.0625 C3.15054688 2.68222656 2.42609375 2.30195312 1.6796875 1.91015625 C1.12539062 1.60980469 0.57109375 1.30945313 0 1 C0 0.67 0 0.34 0 0 Z " fill="#96947B" transform="translate(174,583)"/>
<path d="M0 0 C1.875 0.25 1.875 0.25 4 1 C5.25 3.0625 5.25 3.0625 6 5 C5.01 5.33 4.02 5.66 3 6 C2.01 4.02 1.02 2.04 0 0 Z " fill="#98977B" transform="translate(88,516)"/>
<path d="M0 0 C0.33 0 0.66 0 1 0 C0.67 2.97 0.34 5.94 0 9 C-0.66 9 -1.32 9 -2 9 C-1.125 1.125 -1.125 1.125 0 0 Z " fill="#2B364F" transform="translate(512,501)"/>
<path d="M0 0 C2 2 2 2 2.125 5.125 C2.08375 6.07375 2.0425 7.0225 2 8 C1.34 8 0.68 8 0 8 C-0.38063221 5.6739143 -0.71269945 3.33944736 -1 1 C-0.67 0.67 -0.34 0.34 0 0 Z " fill="#9A9980" transform="translate(71,460)"/>
<path d="M0 0 C0.66 0 1.32 0 2 0 C2.6875 1.625 2.6875 1.625 3 4 C1.5625 7.25 1.5625 7.25 0 10 C-1.2380014 6.42355152 -0.74926071 3.66305234 0 0 Z " fill="#3F455B" transform="translate(315,330)"/>
<path d="M0 0 C0.66 0 1.32 0 2 0 C2.33 1.32 2.66 2.64 3 4 C1.68 4.99 0.36 5.98 -1 7 C-1.04254356 5.00045254 -1.04080783 2.99958364 -1 1 C-0.67 0.67 -0.34 0.34 0 0 Z " fill="#193247" transform="translate(492,322)"/>
<path d="M0 0 C0.99 0 1.98 0 3 0 C1.60667426 3.36720387 0.0210714 4.9859524 -3 7 C-3.33 6.01 -3.66 5.02 -4 4 C-2.68 3.67 -1.36 3.34 0 3 C0 2.01 0 1.02 0 0 Z " fill="#1C344A" transform="translate(517,298)"/>
<path d="M0 0 C0.33 0 0.66 0 1 0 C1.56638908 4.81430721 -0.17438373 7.20307814 -3 11 C-3.33 10.34 -3.66 9.68 -4 9 C-3.22265625 6.8359375 -3.22265625 6.8359375 -2.0625 4.375 C-1.68222656 3.55773437 -1.30195313 2.74046875 -0.91015625 1.8984375 C-0.60980469 1.27195313 -0.30945313 0.64546875 0 0 Z " fill="#EEEDDE" transform="translate(275,252)"/>
<path d="M0 0 C3.96 1.98 3.96 1.98 8 4 C7.67 4.99 7.34 5.98 7 7 C6.34 7 5.68 7 5 7 C5 6.34 5 5.68 5 5 C4.360625 4.731875 3.72125 4.46375 3.0625 4.1875 C1 3 1 3 0 0 Z " fill="#1E374D" transform="translate(489,101)"/>
<path d="M0 0 C0 3 0 3 -2.5 5.6875 C-3.325 6.450625 -4.15 7.21375 -5 8 C-5.66 7.34 -6.32 6.68 -7 6 C-4.69 4.02 -2.38 2.04 0 0 Z " fill="#E0E0E0" transform="translate(601,535)"/>
<path d="M0 0 C0.66 0.33 1.32 0.66 2 1 C-0.31 3.31 -2.62 5.62 -5 8 C-5.33 7.01 -5.66 6.02 -6 5 C-5.34 5 -4.68 5 -4 5 C-3.67 4.01 -3.34 3.02 -3 2 C-2.01 1.34 -1.02 0.68 0 0 Z " fill="#162B3A" transform="translate(77,442)"/>
<path d="M0 0 C0.66 0.33 1.32 0.66 2 1 C0.515 4.465 0.515 4.465 -1 8 C-3 4.25 -3 4.25 -3 2 C-2.01 1.34 -1.02 0.68 0 0 Z " fill="#9D9C7B" transform="translate(494,335)"/>
<path d="M0 0 C0.33 0 0.66 0 1 0 C1 2.31 1 4.62 1 7 C-0.32 6.34 -1.64 5.68 -3 5 C-2.03114628 3.31503702 -1.03013277 1.64821244 0 0 Z " fill="#121E41" transform="translate(322,313)"/>
<path d="M0 0 C-5.078125 3.3203125 -5.078125 3.3203125 -7 4 C-9.234375 3.1171875 -9.234375 3.1171875 -11 2 C-9.54494642 1.47007308 -8.08581873 0.9513211 -6.625 0.4375 C-5.81289063 0.14746094 -5.00078125 -0.14257812 -4.1640625 -0.44140625 C-2 -1 -2 -1 0 0 Z " fill="#3A4E62" transform="translate(322,52)"/>
<path d="M0 0 C0 0.66 0 1.32 0 2 C-2.97 2.66 -5.94 3.32 -9 4 C-9 3.01 -9 2.02 -9 1 C-5.846632 0.29925156 -3.27275026 0 0 0 Z " fill="#96987F" transform="translate(397,656)"/>
<path d="M0 0 C0.33 1.32 0.66 2.64 1 4 C1.66 4 2.32 4 3 4 C3 4.66 3 5.32 3 6 C2.01 6 1.02 6 0 6 C0 6.99 0 7.98 0 9 C-0.66 9 -1.32 9 -2 9 C-1.34 6.03 -0.68 3.06 0 0 Z " fill="#2A3150" transform="translate(524,449)"/>
<path d="M0 0 C0.33 0 0.66 0 1 0 C1 2.31 1 4.62 1 7 C0.34 7 -0.32 7 -1 7 C-1.33 7.66 -1.66 8.32 -2 9 C-1.125 1.125 -1.125 1.125 0 0 Z " fill="#7E816D" transform="translate(534,434)"/>
<path d="M0 0 C0.99 0.33 1.98 0.66 3 1 C1.63016497 4.16115776 1.0109362 4.9927092 -2 7 C-2 5.68 -2 4.36 -2 3 C-1.34 2.67 -0.68 2.34 0 2 C0 1.34 0 0.68 0 0 Z " fill="#203546" transform="translate(142,370)"/>
<path d="M0 0 C0.99 0.33 1.98 0.66 3 1 C2.67 1.99 2.34 2.98 2 4 C-1.0625 5.1875 -1.0625 5.1875 -4 6 C-2.68 4.02 -1.36 2.04 0 0 Z " fill="#868A72" transform="translate(174,340)"/>
<path d="M0 0 C0.66 0 1.32 0 2 0 C0.60667426 3.36720387 -0.9789286 4.9859524 -4 7 C-4 5.68 -4 4.36 -4 3 C-3.01 3 -2.02 3 -1 3 C-0.67 2.01 -0.34 1.02 0 0 Z " fill="#233843" transform="translate(485,332)"/>
<path d="M0 0 C0.99 0.33 1.98 0.66 3 1 C1.35 2.98 -0.3 4.96 -2 7 C-2.33 5.68 -2.66 4.36 -3 3 C-2.01 3 -1.02 3 0 3 C0 2.01 0 1.02 0 0 Z " fill="#213841" transform="translate(188,322)"/>
<path d="M0 0 C2 4 2 4 1.25 7.1875 C0 10 0 10 -2 11 C-1.34 7.37 -0.68 3.74 0 0 Z " fill="#868972" transform="translate(328,298)"/>
<path d="M0 0 C-1.32 1.32 -2.64 2.64 -4 4 C-5.32 3.34 -6.64 2.68 -8 2 C-4.77208445 -0.1519437 -3.71599191 -0.20086443 0 0 Z " fill="#383B4D" transform="translate(336,287)"/>
<path d="M0 0 C0.33 0.99 0.66 1.98 1 3 C-0.32 4.32 -1.64 5.64 -3 7 C-3.66 6.34 -4.32 5.68 -5 5 C-3.35 3.35 -1.7 1.7 0 0 Z " fill="#7E8970" transform="translate(263,244)"/>
<path d="M0 0 C0.33 0.99 0.66 1.98 1 3 C-0.32 4.32 -1.64 5.64 -3 7 C-3.99 6.67 -4.98 6.34 -6 6 C-5.01 5.67 -4.02 5.34 -3 5 C-1.8499169 3.03327085 -1.8499169 3.03327085 -1 1 C-0.67 0.67 -0.34 0.34 0 0 Z " fill="#79846D" transform="translate(276,230)"/>
<path d="M0 0 C2 1.3125 2 1.3125 4 3 C4 3.99 4 4.98 4 6 C3.34 6 2.68 6 2 6 C2 5.34 2 4.68 2 4 C1.01 4 0.02 4 -1 4 C-0.67 2.68 -0.34 1.36 0 0 Z " fill="#131E41" transform="translate(371,210)"/>
<path d="M0 0 C1.32 0.33 2.64 0.66 4 1 C2.35 2.98 0.7 4.96 -1 7 C-2 4 -2 4 -1.0625 1.8125 C-0.5365625 0.9153125 -0.5365625 0.9153125 0 0 Z " fill="#E5EDF2" transform="translate(102,177)"/>
</svg>
